HIERARCHY
ROOT Hips
{
	OFFSET 0.000000 0.000000 0.000000
	CHANNELS 6 Xposition Yposition Zposition Zrotation Yrotation Xrotation 
	JOINT LowerBack
	{
		OFFSET 0.000000 0.000000 0.000000
		CHANNELS 3 Zrotation Yrotation Xrotation
		JOINT Spine
		{
			OFFSET 0.028270 2.035590 -0.193380
			CHANNELS 3 Zrotation Yrotation Xrotation
			JOINT Spine1
			{
				OFFSET 0.056720 2.048850 -0.042750
				CHANNELS 3 Zrotation Yrotation Xrotation
				JOINT Neck
				{
					OFFSET 0.000000 0.000000 0.000000
					CHANNELS 3 Zrotation Yrotation Xrotation
					JOINT Neck1
					{
						OFFSET -0.054170 1.746240 0.172020
						CHANNELS 3 Zrotation Yrotation Xrotation
						JOINT Head
						{
							OFFSET 0.104070 1.761360 -0.123970
							CHANNELS 3 Zrotation Yrotation Xrotation
							End Site
							{
								OFFSET 0.000000 0.000000 0.000000
							}
						}
					}
				}
				JOINT LeftShoulder
				{
					OFFSET 0.000000 0.000000 0.000000
					CHANNELS 3 Zrotation Yrotation Xrotation
					JOINT LeftArm
					{
						OFFSET 3.362410 1.200890 -0.311210
						CHANNELS 3 Zrotation Yrotation Xrotation
						JOINT LeftForeArm
						{
							OFFSET 4.983000 -0.000000 -0.000000
							CHANNELS 3 Zrotation Yrotation Xrotation
							JOINT LeftHand
							{
								OFFSET 3.483560 -0.000000 -0.000000
								CHANNELS 3 Zrotation Yrotation Xrotation
								JOINT LeftFingerBase
								{
									OFFSET 0.000000 0.000000 0.000000
									CHANNELS 3 Zrotation Yrotation Xrotation
									JOINT LeftHandIndex1
									{
										OFFSET 0.715260 -0.000000 -0.000000
										CHANNELS 3 Zrotation Yrotation Xrotation
										End Site
										{
											OFFSET 0.000000 0.000000 0.000000
										}
									}
								}
								JOINT LThumb
								{
									OFFSET 0.000000 0.000000 0.000000
									CHANNELS 3 Zrotation Yrotation Xrotation
									End Site
									{
										OFFSET 0.000000 0.000000 0.000000
									}
								}
							}
						}
					}
				}
				JOINT RightShoulder
				{
					OFFSET 0.000000 0.000000 0.000000
					CHANNELS 3 Zrotation Yrotation Xrotation
					JOINT RightArm
					{
						OFFSET -3.136600 1.374050 -0.404650
						CHANNELS 3 Zrotation Yrotation Xrotation
						JOINT RightForeArm
						{
							OFFSET -5.241900 -0.000000 -0.000000
							CHANNELS 3 Zrotation Yrotation Xrotation
							JOINT RightHand
							{
								OFFSET -3.444170 -0.000000 -0.000000
								CHANNELS 3 Zrotation Yrotation Xrotation
								JOINT RightFingerBase
								{
									OFFSET 0.000000 0.000000 0.000000
									CHANNELS 3 Zrotation Yrotation Xrotation
									JOINT RightHandIndex1
									{
										OFFSET -0.622530 -0.000000 -0.000000
										CHANNELS 3 Zrotation Yrotation Xrotation
										End Site
										{
											OFFSET 0.000000 0.000000 0.000000
										}
									}
								}
								JOINT RThumb
								{
									OFFSET 0.000000 0.000000 0.000000
									CHANNELS 3 Zrotation Yrotation Xrotation
									End Site
									{
										OFFSET 0.000000 0.000000 0.000000
									}
								}
							}
						}
					}
				}
			}
		}
	}
}
}
MOTION
Frames: 6
Frame Time: 0.008333
5.131681 18.498383 0.989679 54.717742 -84.976928 -28.256781 -1.664041 -1.823697 -3.755920 -0.754135 -1.782460 -3.516738 -4.620761 -1.897067 0.698987 5.328653 -6.123369 -4.565146 -1.996966 -0.186818 0.799192 0.000000 0.000000 0.000000 7.196786 0.725971 0.780365 -63.992006 -10.296427 -8.892162 -0.823167 -52.409334 -0.129930 30.454171 -2.012637 -0.629062 -0.301138 0.280990 -0.000000 0.000000 0.000000 0.000000 0.000000 0.000000 0.000000 2.974800 -4.703397 0.812689 71.290440 19.280219 -17.949793 0.431689 36.402103 -0.097523 -28.673928 12.596330 -3.333438 0.206265 -0.305781 0.000000 0.000000 0.000000 0.000000 0.000000 0.000000 0.000000 
4.912019 18.762745 0.973008 54.470331 -85.178558 -28.332307 -1.623112 -1.774088 -4.139696 -0.743818 -1.739230 -3.568881 -4.609878 -1.850736 0.778241 5.365711 -6.381768 -4.431394 -1.973516 -0.187836 0.845303 0.000000 0.000000 0.000000 7.366553 1.002943 0.648370 -63.185015 -10.361717 -9.417575 -0.773154 -53.702299 -0.133250 30.541752 -2.386174 -0.736883 -0.306905 0.291500 -0.000000 0.000000 0.000000 0.000000 0.000000 0.000000 0.000000 2.837499 -4.955700 0.644377 70.526259 19.524607 -17.783661 0.397645 38.318653 -0.100011 -28.445249 12.658551 -3.324586 0.208192 -0.315053 0.000000 0.000000 0.000000 0.000000 0.000000 0.000000 0.000000 
4.698771 19.016066 0.956259 55.010065 -85.392951 -29.019688 -1.594165 -1.729178 -4.541291 -0.739049 -1.700930 -3.626422 -4.609884 -1.809695 0.844824 5.429764 -6.621236 -4.386820 -1.958156 -0.188039 0.865470 0.000000 0.000000 0.000000 7.441077 1.336394 0.563766 -62.231729 -10.494592 -10.096689 -0.719462 -55.001764 -0.137459 30.644337 -2.660230 -0.818415 -0.312145 0.302563 0.000000 0.000000 0.000000 0.000000 0.000000 0.000000 0.000000 2.782919 -5.165580 0.501010 69.620271 19.847954 -17.603875 0.353224 40.274519 -0.103016 -28.233880 12.824852 -3.344735 0.209638 -0.326135 0.000000 0.000000 0.000000 0.000000 0.000000 0.000000 0.000000 
4.493267 19.257166 0.939095 56.419522 -85.621904 -30.429552 -1.578331 -1.688427 -4.924835 -0.739303 -1.666386 -3.683447 -4.617031 -1.772420 0.894269 5.510604 -6.832316 -4.416705 -1.946968 -0.187348 0.863770 0.000000 0.000000 0.000000 7.445788 1.706537 0.521689 -61.149152 -10.673353 -10.931238 -0.661320 -56.339714 -0.142713 30.772310 -2.819877 -0.869658 -0.317393 0.314179 0.000000 0.000000 0.000000 0.000000 0.000000 0.000000 0.000000 2.781151 -5.324860 0.382810 68.594328 20.240125 -17.430865 0.298068 42.274514 -0.106755 -28.056818 13.029214 -3.378584 0.210935 -0.338906 -0.000000 0.000000 0.000000 0.000000 0.000000 0.000000 0.000000 
4.296453 19.484764 0.920958 58.710623 -85.857076 -32.603974 -1.578833 -1.653163 -5.256229 -0.744280 -1.636035 -3.733607 -4.626617 -1.739069 0.926169 5.598548 -7.017936 -4.507121 -1.935553 -0.185643 0.843916 0.000000 0.000000 0.000000 7.415551 2.103277 0.514389 -59.963606 -10.890394 -11.911011 -0.598704 -57.725004 -0.149151 30.939830 -2.865834 -0.890913 -0.323198 0.326435 0.000000 0.000000 0.000000 0.000000 0.000000 0.000000 0.000000 2.801479 -5.440808 0.287543 67.476245 20.694892 -17.286887 0.232387 44.316643 -0.111425 -27.930829 13.211170 -3.412938 0.212443 -0.353205 0.000000 0.000000 0.000000 0.000000 0.000000 0.000000 0.000000 
4.108988 19.698517 0.901687 61.755792 -86.086452 -35.447872 -1.592231 -1.625279 -5.501855 -0.752106 -1.611351 -3.771287 -4.634016 -1.710962 0.937123 5.682401 -7.175384 -4.638428 -1.920725 -0.182962 0.811043 0.000000 0.000000 0.000000 7.380765 2.500329 0.534036 -58.704641 -11.119160 -13.034123 -0.532173 -59.165670 -0.156811 31.159328 -2.809695 -0.885478 -0.329928 0.339348 0.000000 0.000000 0.000000 0.000000 0.000000 0.000000 0.000000 2.813986 -5.516787 0.213007 66.290953 21.193040 -17.205771 0.156792 46.399873 -0.117183 -27.867040 13.321253 -3.436998 0.214469 -0.368869 0.000000 0.000000 0.000000 0.000000 0.000000 0.000000 0.000000 
